<?xml version="1.0" encoding="UTF-8" standalone="no"?>
<!DOCTYPE svg PUBLIC "-//W3C//DTD SVG 1.1//EN" "http://www.w3.org/Graphics/SVG/1.1/DTD/svg11.dtd">
<svg width="100%" height="100%" viewBox="0 0 226 60" version="1.1" xmlns="http://www.w3.org/2000/svg" xmlns:xlink="http://www.w3.org/1999/xlink" xml:space="preserve" xmlns:serif="http://www.serif.com/" style="fill-rule:evenodd;clip-rule:evenodd;stroke-linejoin:round;stroke-miterlimit:2;">
    <g transform="matrix(0.246295,0,0,0.246407,0,0)">
        <path d="M204.5,149.2C204,148.7 203.5,148 203.2,147.3C201.9,144.3 203.3,140.9 206.3,139.6L228.5,130.1C231.5,128.8 234.9,130.2 236.2,133.2C237.5,136.2 236.1,139.6 233.1,140.9L210.9,150.4C208.7,151.3 206.1,150.8 204.5,149.2Z" style="fill:rgb(95,208,223);fill-rule:nonzero;"/>
        <path d="M95.7,195.1C95.3,194.7 94.9,194.2 94.7,193.6C93.7,191.2 94.8,188.5 97.2,187.4L121.5,177C123.9,176 126.6,177.1 127.7,179.5C128.7,181.9 127.6,184.6 125.2,185.7L100.9,196.1C99,196.8 97,196.4 95.7,195.1Z" style="fill:rgb(95,208,223);fill-rule:nonzero;"/>
        <path d="M208.3,166.7C207.2,165.7 206.6,164.2 206.5,162.6C206.4,159.4 209,156.7 212.2,156.6L236.3,156.1C239.5,156 242.2,158.6 242.3,161.8C242.4,165 239.8,167.7 236.6,167.8L212.5,168.3C210.8,168.4 209.3,167.7 208.3,166.7Z" style="fill:rgb(95,208,223);fill-rule:nonzero;"/>
        <path d="M89.4,167.1C88.7,166.5 88.3,165.6 88.3,164.6C88.3,162.7 89.9,161.1 91.8,161.1L120.9,161.1C122.8,161.1 124.4,162.7 124.4,164.6C124.4,166.5 122.8,168.1 120.9,168.1L91.8,168.1C90.9,168.1 90,167.7 89.4,167.1Z" style="fill:rgb(95,208,223);fill-rule:nonzero;"/>
        <path d="M189.2,232.9C188.7,232.4 188.2,231.7 187.9,231L178.4,208.8C177.1,205.8 178.5,202.4 181.5,201.1C184.5,199.8 187.9,201.2 189.2,204.2L198.7,226.4C200,229.4 198.6,232.8 195.6,234.1C193.4,235.1 190.9,234.6 189.2,232.9Z" style="fill:rgb(95,208,223);fill-rule:nonzero;"/>
        <path d="M142.9,124.4C142.4,123.9 141.9,123.2 141.6,122.5L132.1,100.3C130.8,97.3 132.2,93.9 135.2,92.6C138.2,91.3 141.6,92.7 142.9,95.7L152.4,117.9C153.7,120.9 152.3,124.3 149.3,125.6C147,126.6 144.5,126 142.9,124.4Z" style="fill:rgb(95,208,223);fill-rule:nonzero;"/>
        <path d="M194.5,134.3C194.4,134.3 194.4,134.3 194.5,134.3C192.2,132 192.2,128.3 194.4,126L211.4,108.9C213.7,106.6 217.4,106.6 219.7,108.8C222,111.1 222,114.8 219.7,117.1L202.7,134.2C200.4,136.6 196.8,136.6 194.5,134.3Z" style="fill:rgb(95,208,223);fill-rule:nonzero;"/>
        <path d="M111.2,217.9C111.2,217.9 111.1,217.9 111.2,217.9C108.9,215.6 108.9,211.9 111.1,209.6L128.1,192.5C130.4,190.2 134.1,190.2 136.4,192.5C138.7,194.8 138.7,198.5 136.4,200.8L119.4,217.9C117.2,220.2 113.5,220.2 111.2,217.9Z" style="fill:rgb(95,208,223);fill-rule:nonzero;"/>
        <path d="M179.2,124.2C177.5,122.6 176.9,120.1 177.9,117.8L187.1,95.5C188.3,92.5 191.8,91.1 194.8,92.3C197.8,93.5 199.2,97 198,100L188.8,122.3C187.6,125.3 184.1,126.7 181.1,125.5C180.3,125.1 179.7,124.7 179.2,124.2Z" style="fill:rgb(95,208,223);fill-rule:nonzero;"/>
        <path d="M134.3,233.3C132.6,231.7 132,229.2 133,226.9L142.2,204.6C143.4,201.6 146.9,200.2 149.9,201.4C152.9,202.6 154.3,206.1 153.1,209.1L143.9,231.4C142.7,234.4 139.2,235.8 136.2,234.6C135.4,234.2 134.8,233.8 134.3,233.3Z" style="fill:rgb(95,208,223);fill-rule:nonzero;"/>
        <path d="M160.8,120.6C159.7,119.6 159.1,118.1 159,116.5L158.7,92.4C158.7,89.2 161.3,86.5 164.5,86.5C167.7,86.5 170.4,89.1 170.4,92.3L170.7,116.4C170.7,119.6 168.1,122.3 164.9,122.3C163.4,122.3 161.9,121.7 160.8,120.6Z" style="fill:rgb(95,208,223);fill-rule:nonzero;"/>
        <path d="M162.1,238.6C161,237.6 160.4,236.1 160.3,234.5L160,210.4C160,207.2 162.6,204.5 165.8,204.5C169,204.5 171.7,207.1 171.7,210.3L172,234.4C172,237.6 169.4,240.3 166.2,240.3C164.6,240.3 163.2,239.7 162.1,238.6Z" style="fill:rgb(95,208,223);fill-rule:nonzero;"/>
        <path d="M205,185C203.4,183.4 202.7,180.9 203.7,178.6C204.9,175.6 208.3,174.1 211.3,175.3L233.7,184.3C236.7,185.5 238.2,188.9 237,191.9C235.8,194.9 232.4,196.4 229.4,195.2L207,186.2C206.2,186 205.5,185.6 205,185Z" style="fill:rgb(95,208,223);fill-rule:nonzero;"/>
        <path d="M212.1,217.3L194.9,200.4C192.6,198.1 192.5,194.4 194.8,192.1C197.1,189.8 200.8,189.7 203.1,192L220.3,208.9C222.6,211.2 222.7,214.9 220.4,217.2C218.1,219.5 214.4,219.6 212.1,217.3Z" style="fill:rgb(95,208,223);fill-rule:nonzero;"/>
        <path d="M127.8,134.7L110.6,117.8C108.3,115.5 108.2,111.8 110.5,109.5C112.8,107.2 116.5,107.1 118.8,109.4L136,126.3C138.3,128.6 138.4,132.3 136.1,134.6C133.8,137 130.1,137 127.8,134.7Z" style="fill:rgb(95,208,223);fill-rule:nonzero;"/>
        <path d="M117.9,64.6C117.5,64.2 117.1,63.7 116.9,63.1C115.9,60.7 117,58 119.4,56.9L143.7,46.5C146.1,45.5 148.8,46.6 149.9,49C150.9,51.4 149.8,54.1 147.4,55.2L123,65.5C121.2,66.3 119.2,65.9 117.9,64.6Z" style="fill:rgb(95,208,223);fill-rule:nonzero;"/>
        <path d="M9.6,111.3C9.1,110.8 8.6,110.1 8.3,109.4C7,106.4 8.4,103 11.4,101.7L33.6,92.2C36.6,90.9 40,92.3 41.3,95.3C42.6,98.3 41.2,101.7 38.2,103L16,112.5C13.8,113.4 11.3,112.9 9.6,111.3Z" style="fill:rgb(95,208,223);fill-rule:nonzero;"/>
        <path d="M121.1,80.6C120.4,80 120,79.1 120,78.1C120,76.2 121.6,74.6 123.5,74.6L152.6,74.6C154.5,74.6 156.1,76.2 156.1,78.1C156.1,80 154.5,81.6 152.6,81.6L123.5,81.6C122.6,81.6 121.7,81.2 121.1,80.6Z" style="fill:rgb(95,208,223);fill-rule:nonzero;"/>
        <path d="M3.9,84.8C2.8,83.8 2.2,82.3 2.1,80.7C2,77.5 4.6,74.8 7.8,74.7L32,74.2C35.2,74.1 37.9,76.7 38,79.9C38.1,83.1 35.5,85.8 32.3,85.9L8.2,86.4C6.5,86.5 5,85.8 3.9,84.8Z" style="fill:rgb(95,208,223);fill-rule:nonzero;"/>
        <path d="M102.9,148.7C102.4,148.2 101.9,147.5 101.6,146.8L92.1,124.6C90.8,121.6 92.2,118.2 95.2,116.9C98.2,115.6 101.6,117 102.9,120L112.4,142.2C113.7,145.2 112.3,148.6 109.3,149.9C107.1,150.9 104.5,150.4 102.9,148.7Z" style="fill:rgb(95,208,223);fill-rule:nonzero;"/>
        <path d="M56.6,40.2C56.1,39.7 55.6,39 55.3,38.3L45.8,16.1C44.5,13.1 45.9,9.7 48.9,8.4C51.9,7.1 55.3,8.5 56.6,11.5L66.1,33.7C67.4,36.7 66,40.1 63,41.4C60.7,42.4 58.2,41.8 56.6,40.2Z" style="fill:rgb(95,208,223);fill-rule:nonzero;"/>
        <path d="M108.1,50.1C105.8,47.8 105.8,44.1 108,41.8L125,24.7C127.3,22.4 131,22.4 133.3,24.7C135.6,27 135.6,30.7 133.3,33L116.3,50.1C114.1,52.3 110.4,52.4 108.1,50.1Z" style="fill:rgb(95,208,223);fill-rule:nonzero;"/>
        <path d="M24.9,133.7C24.8,133.7 24.8,133.7 24.9,133.7C22.6,131.4 22.6,127.7 24.8,125.4L41.8,108.3C44.1,106 47.8,106 50.1,108.3C52.4,110.6 52.4,114.3 50.1,116.6L33.1,133.7C30.8,136 27.2,136 24.9,133.7Z" style="fill:rgb(95,208,223);fill-rule:nonzero;"/>
        <path d="M92.9,40C91.2,38.4 90.6,35.9 91.6,33.6L100.8,11.3C102,8.3 105.5,6.9 108.5,8.1C111.5,9.3 112.9,12.8 111.7,15.8L102.4,38C101.2,41 97.7,42.4 94.7,41.2C94,40.9 93.4,40.5 92.9,40Z" style="fill:rgb(95,208,223);fill-rule:nonzero;"/>
        <path d="M47.9,149.1C46.2,147.5 45.6,145 46.6,142.7L55.8,120.4C57,117.4 60.5,116 63.5,117.2C66.5,118.4 67.9,121.9 66.7,124.9L57.5,147.2C56.3,150.2 52.8,151.6 49.8,150.4C49.1,150 48.5,149.6 47.9,149.1Z" style="fill:rgb(95,208,223);fill-rule:nonzero;"/>
        <path d="M74.5,36.4C73.4,35.4 72.8,33.9 72.7,32.3L72.5,8.2C72.5,5 75.1,2.3 78.3,2.3C81.5,2.3 84.2,4.9 84.2,8.1L84.5,32.2C84.5,35.4 81.9,38.1 78.7,38.1C77,38.1 75.6,37.5 74.5,36.4Z" style="fill:rgb(95,208,223);fill-rule:nonzero;"/>
        <path d="M75.8,154.4C74.7,153.4 74.1,151.9 74,150.3L73.7,126.2C73.7,123 76.3,120.3 79.5,120.3C82.7,120.3 85.4,122.9 85.4,126.1L85.7,150.2C85.7,153.4 83.1,156.1 79.9,156.1C78.3,156.1 76.8,155.5 75.8,154.4Z" style="fill:rgb(95,208,223);fill-rule:nonzero;"/>
        <path d="M9.1,56.9C7.5,55.3 6.8,52.8 7.8,50.5C9,47.5 12.4,46 15.4,47.2L37.8,56.2C40.8,57.4 42.3,60.8 41.1,63.8C39.9,66.8 36.5,68.3 33.5,67.1L11.1,58.1C10.2,57.8 9.6,57.4 9.1,56.9Z" style="fill:rgb(95,208,223);fill-rule:nonzero;"/>
        <path d="M41.4,50.5L24.2,33.7C21.9,31.4 21.8,27.7 24.1,25.4C26.4,23.1 30.1,23 32.4,25.3L49.6,42.2C51.9,44.5 52,48.2 49.7,50.5C47.5,52.8 43.8,52.8 41.4,50.5Z" style="fill:rgb(95,208,223);fill-rule:nonzero;"/>
    </g>
    <g transform="matrix(0.246295,0,0,0.246407,0,0)">
        <path d="M904.2,208.5L884.5,208.5L884.5,203.6C884.3,198.3 889.3,195.8 894.3,195.8C899.3,195.8 904.1,198.4 904.1,203.4L904.1,208.5L904.2,208.5ZM904,224C902,228 898,229.4 894,229.4C889.1,229.4 884.5,226.5 884.5,221.6L884.5,217.9L915.2,217.9L915.2,203.2C915.2,190.7 904.5,184.8 894.3,184.8C883.7,184.8 873.1,190.7 873.1,203.2L873.1,222.1C873.1,234.4 883.8,240.5 894.3,240.5C901.3,240.5 909.4,236.9 913.6,229.5L904,224ZM869.5,230.3C863.3,230.3 857.6,229.8 857.6,221.3L857.6,196.2L867.9,196.2L867.9,185.8L857.6,185.8L856.6,173.2L846.3,173.2L846.3,221.4C846.3,235 854.7,240.6 865.3,240.6C866.6,240.6 868.1,240.5 869.6,240.3L869.6,230.3L869.5,230.3ZM837.9,185.8L826.6,185.8L826.6,228.8C824.4,229.9 821.6,230.7 818.8,230.7C813.1,230.7 807.5,228.1 807.2,222.1L807.2,185.8L795.8,185.8L795.8,221.9C795.8,235.3 805.5,240.5 817.3,240.6C824,240.6 831.4,238.9 837.9,236.1L837.9,185.8ZM791.3,230.3C785.1,230.3 779.4,229.8 779.4,221.3L779.4,196.2L789.7,196.2L789.7,185.8L779.4,185.8L778.4,173.2L768.1,173.2L768.1,221.4C768.1,235 776.5,240.6 787.1,240.6C788.4,240.6 789.9,240.5 791.4,240.3L791.4,230.3L791.3,230.3ZM748.2,239.5L759.6,239.5L759.6,185.8L748.2,185.8L748.2,239.5ZM746.5,172.3C746.5,176.3 749.6,179.6 753.7,179.6C758,179.6 761,176.4 761,172.3C761,168.2 758,165 753.7,165C749.6,165.1 746.5,168.2 746.5,172.3M743.2,230.3C737,230.3 731.3,229.8 731.3,221.3L731.3,196.2L741.6,196.2L741.6,185.8L731.3,185.8L730.3,173.2L720,173.2L720,221.4C720,235 728.4,240.6 739,240.6C740.3,240.6 741.8,240.5 743.3,240.3L743.3,230.3L743.2,230.3ZM674.2,227.8C678.1,236.4 687.1,240.7 695.5,240.7C705.2,240.7 714.3,235 714.3,223.8C714.2,212.4 705.2,209.1 696.6,207.6C692.1,206.9 686.4,205 686.9,200.2C687.2,196.9 690.5,195.3 694.5,195.3C698.5,195.3 703.3,196.9 706.3,199.9L713.1,192.4C707.8,187.2 701.3,184.7 695.6,184.7C686.5,184.7 675.6,189.2 675.6,201.1C675.6,213.2 687.1,216.5 694.7,218C698.4,218.8 703.1,220 703.1,223.9C702.9,227.9 699.7,229.9 695.8,229.9C691.2,230 685.6,227.3 682.7,222.2L674.2,227.8ZM626.8,239.5L638.2,239.5L638.2,197.3C640.2,196.1 643,195.4 645.9,195.4C651.4,195.4 657.2,197.9 657.5,203.9L657.5,239.5L668.8,239.5L668.8,203.8C668.8,190 657.4,184.6 645.2,184.7C638.8,184.8 632.1,186.4 626.9,189.1L626.9,239.5L626.8,239.5ZM617,166.1L605.1,166.1L605.1,239.5L617,239.5L617,166.1ZM535.9,239.5L547.3,239.5L547.3,197.3C549.3,196.1 552.1,195.4 555,195.4C560.5,195.4 566.3,197.9 566.6,203.9L566.6,239.5L577.9,239.5L577.9,203.8C577.9,190 566.5,184.6 554.3,184.7C547.9,184.8 541.2,186.4 536,189.1L536,239.5L535.9,239.5ZM515.7,239.5L527.1,239.5L527.1,185.8L515.7,185.8L515.7,239.5ZM514,172.3C514,176.3 517.1,179.6 521.2,179.6C525.5,179.6 528.5,176.4 528.5,172.3C528.5,168.2 525.5,165 521.2,165C517.1,165.1 514,168.2 514,172.3M512.1,229.8C505.7,229.8 502.8,226.4 502.8,222L502.8,166L491.4,166L491.4,222C491.4,233.4 498.9,240.4 512.1,240.4L512.1,229.8ZM454.5,207.5L454.5,166.1L443.1,166.1L443.1,239.5L454.5,239.5L454.5,220.7L457.7,217.5L474.6,239.5L488,239.5L465.7,210.6L488.1,185.8L473.8,185.8L454.5,207.5ZM392.5,239.5L403.9,239.5L403.9,197.3C405.9,196.1 408.7,195.4 411.6,195.4C417.1,195.4 422.9,197.9 423.2,203.9L423.2,239.5L434.5,239.5L434.5,203.8C434.5,190 423.1,184.6 410.9,184.7C404.5,184.8 397.8,186.4 392.6,189.1L392.6,239.5L392.5,239.5ZM373,229.8C370.5,230.4 367.1,230.9 363.4,230.9C358.2,230.9 353.5,229 353.5,224C353.5,219.3 357.2,216 363.9,216C367.3,216 370.8,216.8 373.1,217.9L373.1,229.8L373,229.8ZM373,209C369.9,207.7 366,206.9 362.1,206.9C352.1,206.9 342.2,212.3 342.2,224.1C342.2,236.8 352.9,240.5 364.1,240.5C372,240.5 379.4,238.7 384.4,236.9L384.4,202.5C384.4,190.4 373.7,184.8 363.3,184.8C356.5,184.8 349.9,186.4 344.1,192.8L350.5,199.4C353.2,196.4 357.5,194.9 361.8,194.9C367.6,194.8 373,197.5 373,202.8L373,209ZM335.1,184.8C333.5,184.8 327.7,185.3 324.4,187.1C318.7,190.1 314.5,195.6 314.5,203.3L314.5,239.6L325.9,239.6L325.9,203.5C325.9,196.2 335.3,193.8 341.2,195.5L341.2,185.4C338.9,184.9 336.9,184.8 335.1,184.8M275.7,178.1L312,178.1L312,166.1L263.7,166.1L263.7,239.5L275.7,239.5L275.7,210.8L307.5,210.8L307.5,198.8L275.7,198.8L275.7,178.1Z" style="fill:white;fill-rule:nonzero;"/>
    </g>
    <g transform="matrix(0.246295,0,0,0.246407,0,0)">
        <path d="M758.9,149.4C756.8,150.3 754,150.9 751.1,150.9C745.4,150.9 739.6,148.6 739.3,142.4L739.3,122.7C739.8,117 745.2,114.4 750.7,114.4C753.7,114.4 756.6,115.1 758.9,116.6L758.9,149.4ZM770.4,85.9L758.9,85.9L758.9,106.8C755.9,105.3 752.5,104.6 749.1,104.6C738.5,104.6 728,111.2 728,123.2L728,142.4C729,155.8 738.7,160.3 749.6,160.4C756.6,160.5 764.3,158.7 770.4,156.3L770.4,85.9ZM678.9,159.4L690.3,159.4L690.3,117.2C692.3,116 695.1,115.3 698,115.3C703.5,115.3 709.3,117.8 709.6,123.8L709.6,159.4L720.9,159.4L720.9,123.7C720.9,109.9 709.5,104.5 697.3,104.6C690.9,104.7 684.2,106.3 679,109L679,159.4L678.9,159.4ZM658.7,159.4L670.1,159.4L670.1,105.7L658.7,105.7L658.7,159.4ZM657.1,92.2C657.1,96.2 660.2,99.5 664.3,99.5C668.6,99.5 671.6,96.3 671.6,92.2C671.6,88.1 668.6,84.9 664.3,84.9C660.2,85 657.1,88.1 657.1,92.2M655.1,149.8C648.7,149.8 645.8,146.4 645.8,142L645.8,86L634.4,86L634.4,142C634.4,153.4 641.9,160.4 655.1,160.4L655.1,149.8ZM615.1,149.8C612.6,150.4 609.2,150.9 605.5,150.9C600.3,150.9 595.5,149 595.5,144C595.5,139.3 599.2,136 605.9,136C609.3,136 612.8,136.8 615.1,137.9L615.1,149.8ZM615.1,128.9C612,127.6 608.1,126.8 604.2,126.8C594.3,126.8 584.3,132.2 584.3,144C584.3,156.7 595,160.4 606.2,160.4C614.1,160.4 621.5,158.6 626.5,156.8L626.5,122.4C626.5,110.3 615.8,104.7 605.4,104.7C598.6,104.7 592,106.3 586.2,112.7L592.6,119.3C595.3,116.3 599.6,114.8 603.9,114.8C609.7,114.7 615.1,117.4 615.1,122.7L615.1,128.9ZM541,147.7C544.9,156.3 553.9,160.6 562.4,160.6C572.1,160.6 581.2,154.9 581.2,143.7C581.1,132.3 572.1,129 563.5,127.5C559,126.8 553.3,124.9 553.8,120.1C554.1,116.8 557.4,115.2 561.4,115.2C565.4,115.2 570.2,116.8 573.2,119.8L580,112.3C574.7,107.1 568.2,104.6 562.5,104.6C553.4,104.6 542.5,109.1 542.5,121C542.5,133.1 554,136.4 561.6,137.9C565.3,138.7 570,139.9 570,143.8C569.8,147.8 566.6,149.8 562.7,149.8C558.1,149.9 552.5,147.2 549.6,142.1L541,147.7ZM515.8,115.8C520.3,115.8 525.4,118.2 525.4,123.3L525.4,141.4C525.4,146.5 520.2,149.4 515.8,149.4C511,149.4 506,146.5 506,141.4L506,123.3C505.9,118.1 511,115.8 515.8,115.8M494.5,141.9C494.5,154.4 505.2,160.4 515.7,160.5C526.1,160.4 536.7,154.5 536.7,141.9L536.7,123.2C536.7,110.9 526,104.8 515.7,104.6C505.1,104.7 494.5,110.8 494.5,123.2L494.5,141.9ZM447.7,120.5L447.7,98L464.2,98C472.2,98 477.8,100.6 477.8,108.8C477.8,117 472.5,120.5 464.2,120.5L447.7,120.5ZM478.5,159.4L493.1,159.4L470.4,130.6C481.6,129 489.8,122.5 489.8,108.7C489.4,92.5 478.5,86 464.1,86L435.7,86L435.7,159.4L447.7,159.4L447.7,131L456.5,131L478.5,159.4ZM399.5,128.4L379.8,128.4L379.8,123.5C379.6,118.2 384.6,115.7 389.6,115.7C394.6,115.7 399.4,118.3 399.4,123.3L399.4,128.4L399.5,128.4ZM399.3,143.9C397.3,147.9 393.3,149.3 389.3,149.3C384.4,149.3 379.8,146.4 379.8,141.5L379.8,137.8L410.5,137.8L410.5,123.1C410.5,110.6 399.8,104.7 389.6,104.7C379,104.7 368.4,110.6 368.4,123.1L368.4,142C368.4,154.3 379.1,160.4 389.6,160.4C396.6,160.4 404.7,156.8 408.9,149.4L399.3,143.9ZM330.6,86L319.2,86L319.2,159.4L330.6,159.4L330.6,117.4C336.7,113.6 350,113.9 350,123.3L350,159.4L361.3,159.4L361.3,123.4C361.3,110.7 351.5,104.6 341.3,104.6C337.7,104.5 333.9,105.2 330.6,106.7L330.6,86ZM314.8,98L314.8,86L258.2,86L258.2,98L280.5,98L280.5,159.4L292.5,159.4L292.5,98L314.8,98Z" style="fill:white;fill-rule:nonzero;"/>
    </g>
</svg>
